<mxfile host="app.diagrams.net" modified="2023-01-14T15:14:43.081Z" agent="5.0 (Windows)" etag="7wF7L7Dc6DjmPY8Dd5SY" version="20.8.5" type="github">
  <diagram id="UOIs3NlAFLpI_9PbLu1N" name="Page-1">
    <mxGraphModel dx="1730" dy="427" grid="1" gridSize="10" guides="1" tooltips="1" connect="1" arrows="1" fold="1" page="1" pageScale="1" pageWidth="850" pageHeight="1100" math="0" shadow="0">
      <root>
        <mxCell id="0" />
        <mxCell id="1" parent="0" />
        <mxCell id="eYrUPBTQnxh9sH3H1hAe-1" value="STUNTING" style="rounded=1;whiteSpace=wrap;html=1;" parent="1" vertex="1">
          <mxGeometry x="680" y="210" width="120" height="60" as="geometry" />
        </mxCell>
        <mxCell id="eYrUPBTQnxh9sH3H1hAe-2" value="FAKTOR IBU" style="rounded=1;whiteSpace=wrap;html=1;" parent="1" vertex="1">
          <mxGeometry x="520" y="140" width="120" height="60" as="geometry" />
        </mxCell>
        <mxCell id="eYrUPBTQnxh9sH3H1hAe-5" value="FAKTOR ANAK " style="rounded=1;whiteSpace=wrap;html=1;" parent="1" vertex="1">
          <mxGeometry x="520" y="280" width="120" height="60" as="geometry" />
        </mxCell>
        <mxCell id="eYrUPBTQnxh9sH3H1hAe-6" value="STATUS GIZI IBU" style="rounded=1;whiteSpace=wrap;html=1;" parent="1" vertex="1">
          <mxGeometry x="360" y="140" width="120" height="60" as="geometry" />
        </mxCell>
        <mxCell id="eYrUPBTQnxh9sH3H1hAe-7" value="ASUPAN MAKAN" style="rounded=1;whiteSpace=wrap;html=1;" parent="1" vertex="1">
          <mxGeometry x="360" y="240" width="120" height="60" as="geometry" />
        </mxCell>
        <mxCell id="eYrUPBTQnxh9sH3H1hAe-8" value="PENYAKIT INFEKSI " style="rounded=1;whiteSpace=wrap;html=1;" parent="1" vertex="1">
          <mxGeometry x="360" y="340" width="120" height="60" as="geometry" />
        </mxCell>
        <mxCell id="eYrUPBTQnxh9sH3H1hAe-9" value="PENDAPATAN KELUARGA" style="rounded=1;whiteSpace=wrap;html=1;" parent="1" vertex="1">
          <mxGeometry x="40" y="110" width="120" height="60" as="geometry" />
        </mxCell>
        <mxCell id="eYrUPBTQnxh9sH3H1hAe-10" value="TINGKAT PENGETAHUAN IBU" style="rounded=1;whiteSpace=wrap;html=1;" parent="1" vertex="1">
          <mxGeometry x="40" y="20" width="120" height="60" as="geometry" />
        </mxCell>
        <mxCell id="eYrUPBTQnxh9sH3H1hAe-11" value="KETAHANAN PANGAN" style="rounded=1;whiteSpace=wrap;html=1;" parent="1" vertex="1">
          <mxGeometry x="40" y="200" width="120" height="60" as="geometry" />
        </mxCell>
        <mxCell id="eYrUPBTQnxh9sH3H1hAe-12" value="POLA ASUH" style="rounded=1;whiteSpace=wrap;html=1;" parent="1" vertex="1">
          <mxGeometry x="40" y="290" width="120" height="60" as="geometry" />
        </mxCell>
        <mxCell id="eYrUPBTQnxh9sH3H1hAe-13" value="LAYANAN KESEHATAN " style="rounded=1;whiteSpace=wrap;html=1;" parent="1" vertex="1">
          <mxGeometry x="40" y="470" width="120" height="60" as="geometry" />
        </mxCell>
        <mxCell id="eYrUPBTQnxh9sH3H1hAe-14" value="KESEHATAN LINGKUNGAN" style="rounded=1;whiteSpace=wrap;html=1;" parent="1" vertex="1">
          <mxGeometry x="40" y="380" width="120" height="60" as="geometry" />
        </mxCell>
        <mxCell id="eYrUPBTQnxh9sH3H1hAe-15" value="KEPESERTAAN JKN" style="rounded=1;whiteSpace=wrap;html=1;" parent="1" vertex="1">
          <mxGeometry x="-160" y="380" width="120" height="60" as="geometry" />
        </mxCell>
        <mxCell id="eYrUPBTQnxh9sH3H1hAe-16" value="KELUARGA MENGIKUTI PROGRAM KB" style="rounded=1;whiteSpace=wrap;html=1;" parent="1" vertex="1">
          <mxGeometry x="-160" y="280" width="120" height="60" as="geometry" />
        </mxCell>
        <mxCell id="eYrUPBTQnxh9sH3H1hAe-17" value="STATUS ASI EKSLUSIF" style="rounded=1;whiteSpace=wrap;html=1;" parent="1" vertex="1">
          <mxGeometry x="-160" y="180" width="120" height="60" as="geometry" />
        </mxCell>
        <mxCell id="eYrUPBTQnxh9sH3H1hAe-18" value="&lt;font style=&quot;font-size: 12px;&quot;&gt;IBU HAMIL PENDERITA HIPERTENSI TERATUR BEROBAT&lt;/font&gt;" style="rounded=1;whiteSpace=wrap;html=1;" parent="1" vertex="1">
          <mxGeometry x="-160" y="80" width="120" height="60" as="geometry" />
        </mxCell>
        <mxCell id="eYrUPBTQnxh9sH3H1hAe-19" value="" style="endArrow=classic;html=1;rounded=0;fontSize=12;exitX=1;exitY=0.5;exitDx=0;exitDy=0;" parent="1" source="eYrUPBTQnxh9sH3H1hAe-5" edge="1">
          <mxGeometry width="50" height="50" relative="1" as="geometry">
            <mxPoint x="630" y="290" as="sourcePoint" />
            <mxPoint x="680" y="240" as="targetPoint" />
          </mxGeometry>
        </mxCell>
        <mxCell id="eYrUPBTQnxh9sH3H1hAe-20" value="" style="endArrow=classic;html=1;rounded=0;fontSize=12;exitX=1;exitY=0.5;exitDx=0;exitDy=0;entryX=0;entryY=0.5;entryDx=0;entryDy=0;" parent="1" source="eYrUPBTQnxh9sH3H1hAe-2" target="eYrUPBTQnxh9sH3H1hAe-1" edge="1">
          <mxGeometry width="50" height="50" relative="1" as="geometry">
            <mxPoint x="650" y="320" as="sourcePoint" />
            <mxPoint x="690" y="250" as="targetPoint" />
          </mxGeometry>
        </mxCell>
        <mxCell id="eYrUPBTQnxh9sH3H1hAe-23" value="" style="endArrow=classic;html=1;rounded=0;fontSize=12;entryX=0;entryY=0.5;entryDx=0;entryDy=0;exitX=1;exitY=0.5;exitDx=0;exitDy=0;" parent="1" source="eYrUPBTQnxh9sH3H1hAe-8" target="eYrUPBTQnxh9sH3H1hAe-5" edge="1">
          <mxGeometry width="50" height="50" relative="1" as="geometry">
            <mxPoint x="480" y="390" as="sourcePoint" />
            <mxPoint x="540" y="340" as="targetPoint" />
          </mxGeometry>
        </mxCell>
        <mxCell id="eYrUPBTQnxh9sH3H1hAe-26" value="" style="endArrow=classic;html=1;rounded=0;fontSize=12;entryX=0;entryY=0.5;entryDx=0;entryDy=0;exitX=1.008;exitY=0.367;exitDx=0;exitDy=0;exitPerimeter=0;" parent="1" source="eYrUPBTQnxh9sH3H1hAe-7" target="eYrUPBTQnxh9sH3H1hAe-5" edge="1">
          <mxGeometry width="50" height="50" relative="1" as="geometry">
            <mxPoint x="480" y="270" as="sourcePoint" />
            <mxPoint x="520" y="210" as="targetPoint" />
          </mxGeometry>
        </mxCell>
        <mxCell id="eYrUPBTQnxh9sH3H1hAe-27" value="" style="endArrow=classic;html=1;rounded=0;fontSize=12;exitX=0.5;exitY=1;exitDx=0;exitDy=0;" parent="1" source="eYrUPBTQnxh9sH3H1hAe-2" target="eYrUPBTQnxh9sH3H1hAe-5" edge="1">
          <mxGeometry width="50" height="50" relative="1" as="geometry">
            <mxPoint x="550" y="260" as="sourcePoint" />
            <mxPoint x="590" y="200" as="targetPoint" />
          </mxGeometry>
        </mxCell>
        <mxCell id="eYrUPBTQnxh9sH3H1hAe-28" value="" style="endArrow=classic;html=1;rounded=0;fontSize=12;exitX=1;exitY=0.5;exitDx=0;exitDy=0;" parent="1" edge="1">
          <mxGeometry width="50" height="50" relative="1" as="geometry">
            <mxPoint x="480" y="172" as="sourcePoint" />
            <mxPoint x="520" y="172" as="targetPoint" />
          </mxGeometry>
        </mxCell>
        <mxCell id="eYrUPBTQnxh9sH3H1hAe-29" value="PENYAKIT INFEKSI" style="rounded=1;whiteSpace=wrap;html=1;" parent="1" vertex="1">
          <mxGeometry x="200" y="80" width="120" height="60" as="geometry" />
        </mxCell>
        <mxCell id="eYrUPBTQnxh9sH3H1hAe-30" value="ASUPAN MAKANAN " style="rounded=1;whiteSpace=wrap;html=1;" parent="1" vertex="1">
          <mxGeometry x="200" y="200" width="120" height="60" as="geometry" />
        </mxCell>
        <mxCell id="eYrUPBTQnxh9sH3H1hAe-31" value="" style="endArrow=classic;html=1;rounded=0;fontSize=12;exitX=1;exitY=0.5;exitDx=0;exitDy=0;" parent="1" source="eYrUPBTQnxh9sH3H1hAe-29" edge="1">
          <mxGeometry width="50" height="50" relative="1" as="geometry">
            <mxPoint x="310" y="220" as="sourcePoint" />
            <mxPoint x="360" y="170" as="targetPoint" />
          </mxGeometry>
        </mxCell>
        <mxCell id="eYrUPBTQnxh9sH3H1hAe-34" value="" style="endArrow=classic;html=1;rounded=0;fontSize=12;entryX=0;entryY=0.5;entryDx=0;entryDy=0;exitX=1;exitY=0.5;exitDx=0;exitDy=0;" parent="1" source="eYrUPBTQnxh9sH3H1hAe-30" target="eYrUPBTQnxh9sH3H1hAe-6" edge="1">
          <mxGeometry width="50" height="50" relative="1" as="geometry">
            <mxPoint x="340" y="240" as="sourcePoint" />
            <mxPoint x="360" y="270" as="targetPoint" />
          </mxGeometry>
        </mxCell>
        <mxCell id="eYrUPBTQnxh9sH3H1hAe-42" value="" style="endArrow=none;html=1;rounded=0;fontSize=12;edgeStyle=elbowEdgeStyle;elbow=vertical;" parent="1" edge="1">
          <mxGeometry width="50" height="50" relative="1" as="geometry">
            <mxPoint x="160" y="50" as="sourcePoint" />
            <mxPoint x="180" y="50" as="targetPoint" />
          </mxGeometry>
        </mxCell>
        <mxCell id="eYrUPBTQnxh9sH3H1hAe-43" value="" style="endArrow=none;html=1;rounded=0;fontSize=12;elbow=vertical;" parent="1" edge="1">
          <mxGeometry width="50" height="50" relative="1" as="geometry">
            <mxPoint x="180" y="140" as="sourcePoint" />
            <mxPoint x="180" y="50" as="targetPoint" />
          </mxGeometry>
        </mxCell>
        <mxCell id="eYrUPBTQnxh9sH3H1hAe-44" value="" style="endArrow=none;html=1;rounded=0;fontSize=12;elbow=vertical;" parent="1" edge="1">
          <mxGeometry width="50" height="50" relative="1" as="geometry">
            <mxPoint x="160" y="140" as="sourcePoint" />
            <mxPoint x="180" y="140" as="targetPoint" />
          </mxGeometry>
        </mxCell>
        <mxCell id="eYrUPBTQnxh9sH3H1hAe-45" value="" style="endArrow=classic;html=1;rounded=0;fontSize=12;elbow=vertical;" parent="1" target="eYrUPBTQnxh9sH3H1hAe-29" edge="1">
          <mxGeometry width="50" height="50" relative="1" as="geometry">
            <mxPoint x="180" y="110" as="sourcePoint" />
            <mxPoint x="230" y="50" as="targetPoint" />
          </mxGeometry>
        </mxCell>
        <mxCell id="eYrUPBTQnxh9sH3H1hAe-46" value="" style="endArrow=classic;html=1;rounded=0;fontSize=12;elbow=vertical;entryX=0;entryY=0.5;entryDx=0;entryDy=0;" parent="1" target="eYrUPBTQnxh9sH3H1hAe-30" edge="1">
          <mxGeometry width="50" height="50" relative="1" as="geometry">
            <mxPoint x="180" y="110" as="sourcePoint" />
            <mxPoint x="220" y="200" as="targetPoint" />
          </mxGeometry>
        </mxCell>
        <mxCell id="eYrUPBTQnxh9sH3H1hAe-48" value="" style="endArrow=none;html=1;rounded=0;fontSize=12;elbow=vertical;exitX=1;exitY=0.5;exitDx=0;exitDy=0;" parent="1" source="eYrUPBTQnxh9sH3H1hAe-14" edge="1">
          <mxGeometry width="50" height="50" relative="1" as="geometry">
            <mxPoint x="170" y="400" as="sourcePoint" />
            <mxPoint x="180" y="410" as="targetPoint" />
          </mxGeometry>
        </mxCell>
        <mxCell id="eYrUPBTQnxh9sH3H1hAe-50" value="" style="endArrow=none;html=1;rounded=0;fontSize=12;elbow=vertical;exitX=1;exitY=0.5;exitDx=0;exitDy=0;" parent="1" edge="1">
          <mxGeometry width="50" height="50" relative="1" as="geometry">
            <mxPoint x="160" y="499.5" as="sourcePoint" />
            <mxPoint x="180" y="499.5" as="targetPoint" />
          </mxGeometry>
        </mxCell>
        <mxCell id="eYrUPBTQnxh9sH3H1hAe-51" value="" style="endArrow=none;html=1;rounded=0;fontSize=12;elbow=vertical;" parent="1" edge="1">
          <mxGeometry width="50" height="50" relative="1" as="geometry">
            <mxPoint x="180" y="410" as="sourcePoint" />
            <mxPoint x="180" y="500" as="targetPoint" />
          </mxGeometry>
        </mxCell>
        <mxCell id="eYrUPBTQnxh9sH3H1hAe-52" value="" style="endArrow=classic;html=1;rounded=0;fontSize=12;elbow=vertical;entryX=0;entryY=0.5;entryDx=0;entryDy=0;" parent="1" target="eYrUPBTQnxh9sH3H1hAe-8" edge="1">
          <mxGeometry width="50" height="50" relative="1" as="geometry">
            <mxPoint x="180" y="460" as="sourcePoint" />
            <mxPoint x="220" y="350" as="targetPoint" />
          </mxGeometry>
        </mxCell>
        <mxCell id="eYrUPBTQnxh9sH3H1hAe-53" value="" style="endArrow=none;html=1;rounded=0;fontSize=12;elbow=vertical;exitX=1;exitY=0.75;exitDx=0;exitDy=0;" parent="1" edge="1">
          <mxGeometry width="50" height="50" relative="1" as="geometry">
            <mxPoint x="160" y="69" as="sourcePoint" />
            <mxPoint x="170" y="69" as="targetPoint" />
          </mxGeometry>
        </mxCell>
        <mxCell id="eYrUPBTQnxh9sH3H1hAe-54" value="" style="endArrow=none;html=1;rounded=0;fontSize=12;elbow=vertical;exitX=1;exitY=0.5;exitDx=0;exitDy=0;" parent="1" source="eYrUPBTQnxh9sH3H1hAe-12" edge="1">
          <mxGeometry width="50" height="50" relative="1" as="geometry">
            <mxPoint x="170" y="300" as="sourcePoint" />
            <mxPoint x="170" y="320" as="targetPoint" />
          </mxGeometry>
        </mxCell>
        <mxCell id="eYrUPBTQnxh9sH3H1hAe-55" value="" style="endArrow=none;html=1;rounded=0;fontSize=12;elbow=vertical;" parent="1" edge="1">
          <mxGeometry width="50" height="50" relative="1" as="geometry">
            <mxPoint x="170" y="320" as="sourcePoint" />
            <mxPoint x="170" y="70" as="targetPoint" />
          </mxGeometry>
        </mxCell>
        <mxCell id="eYrUPBTQnxh9sH3H1hAe-56" value="" style="endArrow=classic;html=1;rounded=0;fontSize=12;elbow=vertical;entryX=-0.017;entryY=0.65;entryDx=0;entryDy=0;entryPerimeter=0;" parent="1" target="eYrUPBTQnxh9sH3H1hAe-7" edge="1">
          <mxGeometry width="50" height="50" relative="1" as="geometry">
            <mxPoint x="170" y="180" as="sourcePoint" />
            <mxPoint x="350" y="280" as="targetPoint" />
            <Array as="points">
              <mxPoint x="170" y="280" />
            </Array>
          </mxGeometry>
        </mxCell>
        <mxCell id="eYrUPBTQnxh9sH3H1hAe-57" value="" style="endArrow=classic;html=1;rounded=0;fontSize=12;elbow=vertical;entryX=0;entryY=0.5;entryDx=0;entryDy=0;" parent="1" target="eYrUPBTQnxh9sH3H1hAe-10" edge="1">
          <mxGeometry width="50" height="50" relative="1" as="geometry">
            <mxPoint x="-40" y="110" as="sourcePoint" />
            <mxPoint x="10" y="60" as="targetPoint" />
          </mxGeometry>
        </mxCell>
        <mxCell id="eYrUPBTQnxh9sH3H1hAe-58" value="" style="endArrow=classic;html=1;rounded=0;fontSize=12;elbow=vertical;entryX=0;entryY=0.5;entryDx=0;entryDy=0;exitX=1;exitY=0.5;exitDx=0;exitDy=0;" parent="1" source="eYrUPBTQnxh9sH3H1hAe-17" target="eYrUPBTQnxh9sH3H1hAe-10" edge="1">
          <mxGeometry width="50" height="50" relative="1" as="geometry">
            <mxPoint x="-30" y="120" as="sourcePoint" />
            <mxPoint x="50" y="60" as="targetPoint" />
          </mxGeometry>
        </mxCell>
        <mxCell id="eYrUPBTQnxh9sH3H1hAe-59" value="" style="endArrow=classic;html=1;rounded=0;fontSize=12;elbow=vertical;entryX=-0.017;entryY=0.65;entryDx=0;entryDy=0;exitX=1;exitY=0.5;exitDx=0;exitDy=0;entryPerimeter=0;" parent="1" source="eYrUPBTQnxh9sH3H1hAe-16" target="eYrUPBTQnxh9sH3H1hAe-10" edge="1">
          <mxGeometry width="50" height="50" relative="1" as="geometry">
            <mxPoint x="-30" y="220" as="sourcePoint" />
            <mxPoint x="50" y="60" as="targetPoint" />
          </mxGeometry>
        </mxCell>
        <mxCell id="eYrUPBTQnxh9sH3H1hAe-60" value="" style="endArrow=classic;html=1;rounded=0;fontSize=12;elbow=vertical;entryX=0;entryY=0.5;entryDx=0;entryDy=0;exitX=1;exitY=0.5;exitDx=0;exitDy=0;" parent="1" source="eYrUPBTQnxh9sH3H1hAe-15" target="eYrUPBTQnxh9sH3H1hAe-13" edge="1">
          <mxGeometry width="50" height="50" relative="1" as="geometry">
            <mxPoint x="-30" y="320" as="sourcePoint" />
            <mxPoint x="47.960000000000036" y="69" as="targetPoint" />
          </mxGeometry>
        </mxCell>
        <mxCell id="eYrUPBTQnxh9sH3H1hAe-61" value="" style="endArrow=classic;html=1;rounded=0;fontSize=12;elbow=vertical;" parent="1" edge="1">
          <mxGeometry width="50" height="50" relative="1" as="geometry">
            <mxPoint x="180" y="460" as="sourcePoint" />
            <mxPoint x="200" y="110" as="targetPoint" />
            <Array as="points" />
          </mxGeometry>
        </mxCell>
        <mxCell id="eYrUPBTQnxh9sH3H1hAe-62" value="" style="endArrow=classic;html=1;rounded=0;fontSize=12;elbow=vertical;exitX=1;exitY=0.5;exitDx=0;exitDy=0;entryX=0;entryY=0.5;entryDx=0;entryDy=0;" parent="1" source="eYrUPBTQnxh9sH3H1hAe-11" target="eYrUPBTQnxh9sH3H1hAe-30" edge="1">
          <mxGeometry width="50" height="50" relative="1" as="geometry">
            <mxPoint x="170" y="300" as="sourcePoint" />
            <mxPoint x="220" y="250" as="targetPoint" />
          </mxGeometry>
        </mxCell>
        <mxCell id="eYrUPBTQnxh9sH3H1hAe-63" value="" style="endArrow=classic;html=1;rounded=0;fontSize=12;elbow=vertical;" parent="1" edge="1">
          <mxGeometry width="50" height="50" relative="1" as="geometry">
            <mxPoint x="160" y="230" as="sourcePoint" />
            <mxPoint x="200" y="110" as="targetPoint" />
          </mxGeometry>
        </mxCell>
        <mxCell id="eYrUPBTQnxh9sH3H1hAe-64" value="" style="endArrow=classic;html=1;rounded=0;fontSize=12;elbow=vertical;exitX=-0.033;exitY=0.617;exitDx=0;exitDy=0;exitPerimeter=0;entryX=-0.025;entryY=0.633;entryDx=0;entryDy=0;entryPerimeter=0;" parent="1" source="eYrUPBTQnxh9sH3H1hAe-10" target="eYrUPBTQnxh9sH3H1hAe-12" edge="1">
          <mxGeometry width="50" height="50" relative="1" as="geometry">
            <mxPoint x="170" y="300" as="sourcePoint" />
            <mxPoint x="220" y="250" as="targetPoint" />
            <Array as="points">
              <mxPoint y="210" />
            </Array>
          </mxGeometry>
        </mxCell>
        <mxCell id="eYrUPBTQnxh9sH3H1hAe-65" value="" style="endArrow=classic;html=1;rounded=0;fontSize=12;elbow=vertical;exitX=0;exitY=0.5;exitDx=0;exitDy=0;entryX=0;entryY=0.5;entryDx=0;entryDy=0;" parent="1" source="eYrUPBTQnxh9sH3H1hAe-10" target="eYrUPBTQnxh9sH3H1hAe-14" edge="1">
          <mxGeometry width="50" height="50" relative="1" as="geometry">
            <mxPoint x="170" y="300" as="sourcePoint" />
            <mxPoint x="220" y="250" as="targetPoint" />
            <Array as="points">
              <mxPoint y="280" />
            </Array>
          </mxGeometry>
        </mxCell>
        <mxCell id="eYrUPBTQnxh9sH3H1hAe-66" value="" style="endArrow=classic;html=1;rounded=0;fontSize=12;elbow=vertical;exitX=0;exitY=0.25;exitDx=0;exitDy=0;" parent="1" source="eYrUPBTQnxh9sH3H1hAe-13" edge="1">
          <mxGeometry width="50" height="50" relative="1" as="geometry">
            <mxPoint x="40" y="500" as="sourcePoint" />
            <mxPoint x="40" y="60" as="targetPoint" />
            <Array as="points">
              <mxPoint x="-10" y="320" />
            </Array>
          </mxGeometry>
        </mxCell>
        <mxCell id="eYrUPBTQnxh9sH3H1hAe-68" value="" style="endArrow=classic;startArrow=classic;html=1;rounded=0;fontSize=12;elbow=vertical;entryX=0.5;entryY=1;entryDx=0;entryDy=0;" parent="1" source="eYrUPBTQnxh9sH3H1hAe-8" target="eYrUPBTQnxh9sH3H1hAe-7" edge="1">
          <mxGeometry width="50" height="50" relative="1" as="geometry">
            <mxPoint x="170" y="310" as="sourcePoint" />
            <mxPoint x="220" y="260" as="targetPoint" />
          </mxGeometry>
        </mxCell>
        <mxCell id="hBjxV5yD04GeJmrKXbBX-1" value="" style="endArrow=classic;html=1;rounded=0;fontSize=12;elbow=vertical;exitX=1;exitY=0.5;exitDx=0;exitDy=0;entryX=0;entryY=0.5;entryDx=0;entryDy=0;" edge="1" parent="1" source="eYrUPBTQnxh9sH3H1hAe-18" target="eYrUPBTQnxh9sH3H1hAe-9">
          <mxGeometry width="50" height="50" relative="1" as="geometry">
            <mxPoint x="170" y="280" as="sourcePoint" />
            <mxPoint x="220" y="230" as="targetPoint" />
          </mxGeometry>
        </mxCell>
        <mxCell id="hBjxV5yD04GeJmrKXbBX-2" value="" style="endArrow=classic;html=1;rounded=0;fontSize=12;elbow=vertical;exitX=1;exitY=0.5;exitDx=0;exitDy=0;entryX=0;entryY=0.5;entryDx=0;entryDy=0;" edge="1" parent="1" source="eYrUPBTQnxh9sH3H1hAe-16" target="eYrUPBTQnxh9sH3H1hAe-13">
          <mxGeometry width="50" height="50" relative="1" as="geometry">
            <mxPoint x="170" y="280" as="sourcePoint" />
            <mxPoint x="220" y="230" as="targetPoint" />
          </mxGeometry>
        </mxCell>
        <mxCell id="hBjxV5yD04GeJmrKXbBX-3" value="" style="endArrow=classic;html=1;rounded=0;fontSize=12;elbow=vertical;entryX=0;entryY=0.5;entryDx=0;entryDy=0;" edge="1" parent="1" target="eYrUPBTQnxh9sH3H1hAe-11">
          <mxGeometry width="50" height="50" relative="1" as="geometry">
            <mxPoint x="-40" y="210" as="sourcePoint" />
            <mxPoint x="220" y="230" as="targetPoint" />
          </mxGeometry>
        </mxCell>
        <mxCell id="hBjxV5yD04GeJmrKXbBX-4" value="" style="endArrow=classic;html=1;rounded=0;fontSize=12;elbow=vertical;exitX=1;exitY=0.5;exitDx=0;exitDy=0;" edge="1" parent="1" source="eYrUPBTQnxh9sH3H1hAe-17">
          <mxGeometry width="50" height="50" relative="1" as="geometry">
            <mxPoint x="170" y="280" as="sourcePoint" />
            <mxPoint x="40" y="410" as="targetPoint" />
          </mxGeometry>
        </mxCell>
      </root>
    </mxGraphModel>
  </diagram>
</mxfile>
